<svg height="511pt" viewBox="0 0 511.99925 511" width="511pt" xmlns="http://www.w3.org/2000/svg" xmlns:xlink="http://www.w3.org/1999/xlink"><linearGradient id="a" gradientUnits="userSpaceOnUse" x1="0" x2="512.0001039664" y1="256.4957709832" y2="256.4957709832"><stop offset="0" stop-color="#00f2fe"/><stop offset=".0208" stop-color="#03effe"/><stop offset=".2931" stop-color="#24d2fe"/><stop offset=".5538" stop-color="#3cbdfe"/><stop offset=".7956" stop-color="#4ab0fe"/><stop offset="1" stop-color="#4facfe"/></linearGradient><path d="m1.664062 50.71875c-1.066406-2.445312-1.664062-5.136719-1.664062-7.972656 0-11.046875 8.953125-20 20-20 8.785156 0 16.234375 5.671875 18.917969 13.550781l.050781-.015625-.035156-.109375c.484375 1.402344 12.246094 34.324219 40.066406 34.324219 3.253906 0 11.898438 0 18.308594-20.234375 4.566406-14.421875 4.691406-29.660157 4.691406-29.8125.042969-9.433594 6.675781-17.578125 15.90625-19.507813 9.234375-1.925781 18.5625 2.832032 22.378906 11.453125 10.851563 24.347657 34.515625 58.101563 50.714844 58.101563 15.847656 0 37.734375-33.367188 47.4375-57.453125 2.972656-7.375 10.035156-12.300781 17.980469-12.527344 7.964843-.207031 15.28125 4.257813 18.667969 11.449219.074218.152344 7.875 16.542968 19.070312 32.453125 14.519531 20.625 24.558594 26.078125 27.839844 26.078125 3.445312 0 14.210937-5.582032 30.277344-26.707032 12.183593-16.015624 20.960937-32.488281 21.046874-32.652343 4.109376-7.742188 12.78125-11.914063 21.390626-10.289063 8.609374 1.628906 15.160156 8.667969 16.15625 17.375.015624.132813 1.910156 15.933594 7.402343 31.066406 5.289063 14.566407 11.339844 21.207032 14.726563 21.207032 16.371094 0 35.195312-25.5 41.269531-37.132813 5.113281-9.792969 17.195313-13.585937 26.988281-8.472656 9.789063 5.113281 13.582032 17.195313 8.46875 26.984375-3.132812 6-31.902344 58.617188-76.726562 58.617188-15.128906 0-35.613282-7.371094-49.855469-41.226563-21.378906 27.734375-41.394531 41.226563-61.144531 41.226563-20.464844 0-40.378906-14.238282-60.882813-43.53125-1.136719-1.621094-2.242187-3.242188-3.308593-4.851563-.953126 1.503906-1.9375 3.015625-2.953126 4.53125-19.539062 29.097656-41.019531 43.851563-63.855468 43.851563-20.742188 0-40.882813-12.304688-59.957032-36.601563-14.296874 31.515625-38.152343 36.601563-52.039062 36.601563-23.953125 0-45.175781-10.925782-61.371094-31.601563-9.324218-11.910156-14.277344-23.683594-15.964844-28.171875zm371.332032 97.648438c-11.042969 0-20 8.957031-20 20v136.125c0 33.082031 26.917968 60 60 60h16c11.046875 0 20-8.953126 20-20 0-11.046876-8.953125-20-20-20h-16c-11.027344 0-20-8.972657-20-20v-136.125c0-11.042969-8.953125-20-20-20zm-266.996094 0c-11.046875 0-20 8.957031-20 20v136.125c0 33.082031 26.914062 60 60 60h16c11.042969 0 20-8.953126 20-20 0-11.046876-8.957031-20-20-20h-16c-11.027344 0-20-8.972657-20-20v-136.125c0-11.042969-8.953125-20-20-20zm326.996094 254.125c-15.125 0-35.609375 7.371093-49.851563 41.226562-21.382812-27.734375-41.398437-41.226562-61.148437-41.226562-20.464844 0-40.378906 14.238281-60.882813 43.53125-1.136719 1.621093-2.242187 3.242187-3.308593 4.851562-.949219-1.503906-1.9375-3.015625-2.953126-4.53125-19.535156-29.097656-41.019531-43.851562-63.851562-43.851562-20.746094 0-40.886719 12.304687-59.960938 36.601562-14.296874-31.511719-38.152343-36.601562-52.039062-36.601562-23.953125 0-45.175781 10.929687-61.371094 31.601562-11.179687 14.277344-16.074218 28.371094-16.597656 29.933594l.007812.003906c-.664062 1.992188-1.039062 4.117188-1.039062 6.335938 0 11.042968 8.953125 20 20 20 8.828125 0 16.308594-5.730469 18.957031-13.664063h.011719l-.039062.109375c.488281-1.398438 12.25-34.320312 40.070312-34.320312 3.253906 0 11.898438 0 18.304688 20.234374 4.570312 14.417969 4.695312 29.660157 4.695312 29.765626 0 9.441406 6.605469 17.585937 15.839844 19.550781 9.234375 1.964843 18.59375-2.808594 22.4375-11.433594 10.855468-24.367187 34.523437-58.117187 50.71875-58.117187 15.851562 0 37.734375 33.363281 47.433594 57.425781 2.953124 7.390625 10.011718 12.324219 17.96875 12.5625.199218.007812.402343.007812.601562.007812 7.722656 0 14.78125-4.453125 18.085938-11.46875.078124-.160156 7.652343-16.144531 18.796874-32.058593 14.65625-20.9375 24.796876-26.46875 28.113282-26.46875 3.445312 0 14.207031 5.578124 30.277344 26.703124 12.179687 16.015626 20.960937 32.488282 21.039062 32.640626 4.09375 7.742187 12.75 11.90625 21.359375 10.300781 8.609375-1.609375 15.171875-8.648438 16.191406-17.347657.019531-.15625 1.914063-15.960937 7.40625-31.089843 5.285157-14.570313 11.339844-21.207031 14.726563-21.207031 16.347656 0 34.878906 25.046874 41.269531 37.132812 5.113281 9.789062 17.195313 13.582031 26.988281 8.46875 9.789063-5.113281 13.582032-17.195312 8.46875-26.984375-3.132812-6-31.902344-58.617187-76.726562-58.617187zm-177-254c33.085937 0 60 26.917968 60 60v96c0 33.082031-26.914063 60-60 60-33.082032 0-59.996094-26.917969-59.996094-60v-96c0-33.082032 26.914062-60 59.996094-60zm0 40c-11.027344 0-19.996094 8.972656-19.996094 20v96c0 11.027343 8.96875 20 19.996094 20 11.03125 0 20-8.972657 20-20v-96c0-11.027344-8.96875-20-20-20zm0 0" fill="url(#a)"/></svg>